<svg width="150" height="150" viewBox="0 0 150 150" fill="none" xmlns="http://www.w3.org/2000/svg">
<rect width="150" height="150" fill="#007ACC"/>
<path d="M46.3438 69.75H32.375V138H42.9219V114.844L42.3125 85.5L51.8281 116.953H57.6875L68.1875 84.375L67.5312 114.844V138H78.125V69.75H64.1094L54.7812 98.9531L46.3438 69.75ZM94.7188 138H105.359L112.203 96.2344L112.719 93L113.188 96.2344L120.125 138H130.766L139.766 69.75H129.266L124.531 111.656L124.203 114.516L123.734 111.703L116.938 69.75H108.312L101.75 111.516L101.281 114.328L100.953 111.656L96.2656 69.75H85.8125L94.7188 138Z" fill="#EBEBEB"/>
</svg>
